<svg width="54" height="28" viewBox="0 0 54 28" fill="none" xmlns="http://www.w3.org/2000/svg">
<path d="M23.2731 14.9726C23.2731 16.1291 21.8825 16.6275 21.1916 15.7C20.3869 14.6197 19.5782 13.4737 18.7854 12.347C14.5017 6.27469 10.0881 0 3.70886 0H1.25C0.559645 0 0 0.559644 0 1.25V26.75C0 27.4404 0.559644 28 1.25 28H6.16772C6.85808 28 7.41772 27.4404 7.41772 26.75V12.4779C7.41772 11.344 8.75831 10.8395 9.45106 11.7373C10.4833 13.075 11.5197 14.548 12.5359 15.9903C16.8568 22.1301 20.9366 27.9156 26.982 27.9156H29.4409C30.1312 27.9156 30.6909 27.356 30.6909 26.6656V1.25C30.6909 0.559646 30.1312 0 29.4409 0H24.5231C23.8328 0 23.2731 0.559644 23.2731 1.25V14.9726Z" fill="white"/>
<path d="M52.2784 1.25V1.51807C52.2784 5.65184 50.3889 9.41791 47.3115 12.1283C46.2158 13.0932 46.2158 14.8392 47.3115 15.8042C50.3889 18.5146 52.2784 22.2807 52.2784 26.4145V26.6826C52.2784 26.8206 52.1664 26.9326 52.0284 26.9326H47.1106C46.9725 26.9326 46.8606 26.8206 46.8606 26.6826V26.4145C46.8606 20.7655 41.8525 16.3398 35.8838 16.3398H35.4648C35.3268 16.3398 35.2148 16.2278 35.2148 16.0898V11.8428C35.2148 11.7047 35.3268 11.5928 35.4648 11.5928H35.8838C41.8525 11.5928 46.8606 7.16707 46.8606 1.51807V1.25C46.8606 1.11193 46.9725 1 47.1106 1H52.0284C52.1664 1 52.2784 1.11193 52.2784 1.25Z" fill="white" stroke="white" stroke-width="2"/>
</svg>
